<svg xmlns="http://www.w3.org/2000/svg" xmlns:xlink="http://www.w3.org/1999/xlink"><defs><style>
    .sprite-symbol-usage {display: none;}
    .sprite-symbol-usage:target {display: inline;}
  </style><symbol viewBox="0 0 38.24 39.77" id="bell"><path class="cls-1" d="M34.34 22.89C35.46 12 32.34.46 18.99 0 5.73.58 2.81 12.08 3.9 22.89c-5.47 9.88-4.84 10.96-.26 10.88v.3h9.51a6 6 0 0 0 11.93 0h9.13v-.3c4.95.14 5.75-.72.13-10.88ZM19.12 37.77c-2.4 0-3.59-1.72-3.93-3.73h7.86c-.35 2.01-1.54 3.73-3.93 3.73Zm4-6.16v.43h-8v-.43H1.86l4-8.26C4.98 13.69 6.65 2.5 18.95 2c12.33.35 14.33 11.48 13.39 21.35l4 8.26Z" /></symbol><symbol viewBox="0 0 11.15 10.61" id="comment"><path class="a" d="M1.5 1.5v5.67h1.39v1.25l2.53-1.25h4.23V1.5H1.5M.7 0h9.75a.72.72 0 0 1 .7.71V8a.65.65 0 0 1-.7.64H5.77L2 10.53c-.34.16-.63.1-.63-.28V8.67H.7A.65.65 0 0 1 0 8V.71A.72.72 0 0 1 .7 0Z" /></symbol><symbol viewBox="0 0 40.85 41" id="rss"><path class="a" d="M6.22 41a6.22 6.22 0 1 1 6.21-6.22A6.23 6.23 0 0 1 6.22 41Zm0-10.43a4.22 4.22 0 1 0 4.21 4.21 4.22 4.22 0 0 0-4.21-4.21Z" /><path class="a" d="M38.81 38a37.87 37.87 0 0 0-11.09-24.87A37.88 37.88 0 0 0 2.87 2v3.64A34.51 34.51 0 0 1 35.15 38h3.66m-13.63 0A24.47 24.47 0 0 0 2.87 15.66v3.66A20.74 20.74 0 0 1 21.5 38h3.68m14.44 2H34.5a1.31 1.31 0 0 1-1.28-1.26 32.4 32.4 0 0 0-31-31.1A1.3 1.3 0 0 1 .96 6.37V1.23A1.23 1.23 0 0 1 2.13 0a40.09 40.09 0 0 1 38.72 38.74A1.23 1.23 0 0 1 39.62 40Zm-13.61 0h-5.17a1.33 1.33 0 0 1-1.29-1.26A18.77 18.77 0 0 0 2.13 21.26 1.33 1.33 0 0 1 .87 20v-5.17a1.22 1.22 0 0 1 1.26-1.22 26.47 26.47 0 0 1 25.1 25.13A1.22 1.22 0 0 1 26.01 40Z" /></symbol><symbol viewBox="0 -0.06 20 20" id="search"><path class="a" d="m19.71 18.29-4.54-4.54a8.53 8.53 0 1 0-1.42 1.42l4.54 4.53a1 1 0 0 0 .71.3 1 1 0 0 0 .71-.3 1 1 0 0 0 0-1.41ZM2 8.5a6.5 6.5 0 1 1 11.1 4.59 6.5 6.5 0 0 1-11.09-4.6Z" /></symbol><symbol id="sprite"></symbol></defs><use id="bell-usage" xlink:href="#bell" class="sprite-symbol-usage" /><use id="comment-usage" xlink:href="#comment" class="sprite-symbol-usage" /><use id="rss-usage" xlink:href="#rss" class="sprite-symbol-usage" /><use id="search-usage" xlink:href="#search" class="sprite-symbol-usage" /><use id="sprite-usage" xlink:href="#sprite" class="sprite-symbol-usage" /></svg>