<svg id="bell" data-name="bell" xmlns="http://www.w3.org/2000/svg" viewBox="0 0 38.24 39.77">
	<path class="cls-1" d="M45.06,33.12c1.12-10.89-2-22.43-15.35-22.89-13.26.58-16.18,12.08-15.09,22.89C9.15,43,9.78,44.08,14.36,44v.3h9.51a6,6,0,0,0,11.93,0h9.13V44C49.88,44.14,50.68,43.28,45.06,33.12ZM29.84,48c-2.4,0-3.59-1.72-3.93-3.73h7.86C33.42,46.28,32.23,48,29.84,48Zm4-6.16c0,.14,0,.29,0,.43h-8c0-.14,0-.29,0-.43H12.58l4-8.26c-.88-9.66.79-20.85,13.09-21.35C42,12.58,44,23.71,43.06,33.58l4,8.26Z" transform="translate(-10.72 -10.23)"/>
</svg>