<svg xmlns="http://www.w3.org/2000/svg" viewBox="0 0 40.85 41">
<path class="a" d="M15.72,51a6.22,6.22,0,1,1,6.21-6.22A6.23,6.23,0,0,1,15.72,51Zm0-10.43a4.22,4.22,0,1,0,4.21,4.21A4.22,4.22,0,0,0,15.72,40.57Z" transform="translate(-9.5 -10)"/><path class="a" d="M48.31,48A37.87,37.87,0,0,0,37.22,23.13,37.88,37.88,0,0,0,12.37,12v3.64A34.51,34.51,0,0,1,44.65,48h3.66M34.68,48A24.47,24.47,0,0,0,12.37,25.66v3.66A20.74,20.74,0,0,1,31,48h3.68m14.44,2H44a1.31,1.31,0,0,1-1.28-1.26,32.4,32.4,0,0,0-31-31.1,1.3,1.3,0,0,1-1.26-1.27V11.23A1.23,1.23,0,0,1,11.63,10,40.09,40.09,0,0,1,50.35,48.74,1.23,1.23,0,0,1,49.12,50ZM35.51,50H30.34a1.33,1.33,0,0,1-1.29-1.26A18.77,18.77,0,0,0,11.63,31.26,1.33,1.33,0,0,1,10.37,30V24.83a1.22,1.22,0,0,1,1.26-1.22,26.47,26.47,0,0,1,25.1,25.13A1.22,1.22,0,0,1,35.51,50Z" transform="translate(-9.5 -10)"/></svg>