<?xml version="1.0" encoding="utf-8"?>
<svg xmlns="http://www.w3.org/2000/svg" xmlns:xlink="http://www.w3.org/1999/xlink">
  <symbol viewBox="0 0 60 60" id="bell" xmlns="http://www.w3.org/2000/svg">
    <g stroke-miterlimit="10">
      <path d="M45.063 33.119v-7.684a15.143 15.143 0 00-9.533-14.062 19.764 19.764 0 00-5.821-1.143 17.124 17.124 0 00-5.558 1.143 14.91 14.91 0 00-9.533 14.072v7.674l-3.928 8.042a1.864 1.864 0 001.673 2.684h11.5v.185a5.973 5.973 0 0011.947 0v-.182h11.508a1.864 1.864 0 001.673-2.684z"/>
      <path d="M29.836 48a3.978 3.978 0 003.973-3.973v-2.182H47.1l-4.036-8.264v-8.145c0-2.64-.783-5.188-2.264-7.373a13.094 13.094 0 00-5.987-4.823c-.786-.29-3.167-1.01-5.103-1.01-2.3 0-4.784.987-4.806.996l-.03.012a12.852 12.852 0 00-6.034 4.801 12.852 12.852 0 00-2.221 7.383v8.159l-4.036 8.264h13.28v2.182A3.978 3.978 0 0029.836 48m0 2a5.973 5.973 0 01-5.974-5.973v-.182h-11.5a1.864 1.864 0 01-1.672-2.684l3.928-8.042v-7.674a14.91 14.91 0 019.533-14.072s2.817-1.143 5.558-1.143c2.741 0 5.82 1.143 5.82 1.143a15.143 15.143 0 019.534 14.062v7.684l3.928 8.042a1.864 1.864 0 01-1.673 2.684H35.81v.182A5.973 5.973 0 0129.837 50z"/>
    </g>
    <path d="M15.357 43.268h28.572"/>
  </symbol>

  <symbol viewBox="0 0 32 32" id="check" xmlns="http://www.w3.org/2000/svg">
    <path d="M26.664 6.27a.829.829 0 00-1.177 0L13.088 18.611a.826.826 0 01-1.178 0l-5.433-5.532a.825.825 0 00-1.177 0l-2.401 2.158a.83.83 0 00-.246.583c0 .215.087.44.247.603l5.478 5.749c.324.328.855.861 1.178 1.186l2.355 2.374a.834.834 0 001.178 0L29.019 9.83a.846.846 0 000-1.188l-2.356-2.373z"/>
  </symbol>
  
  <symbol viewBox="0 0 11.152 10.611" id="comment" xmlns="http://www.w3.org/2000/svg">
    <g stroke-miterlimit="10">
      <path d="M10.455 0H.7a.719.719 0 00-.7.713v7.319a.654.654 0 00.7.635h.7v1.584c0 .376.282.439.629.277l3.742-1.861h4.684a.654.654 0 00.7-.635V.713a.719.719 0 00-.7-.713z"/>
      <path d="M1.5 1.5v5.667h1.394V8.42l2.525-1.253h4.233V1.5H1.5M.697 0h9.758c.383 0 .697.339.697.713v7.319c0 .375-.314.635-.697.635H5.77l-3.748 1.86c-.347.163-.63.1-.63-.276V8.667H.698c-.383 0-.697-.26-.697-.635V.713C0 .34.314 0 .697 0z"/>
    </g>
  </symbol>
  
  <symbol viewBox="0 0 45.437 45.437" id="empty" xmlns="http://www.w3.org/2000/svg"/>
  
  <symbol viewBox="0 0 60 60" id="rss" xmlns="http://www.w3.org/2000/svg">
    <g transform="translate(9.5 10)" stroke-miterlimit="10">
      <path d="M34.46 40a1.3 1.3 0 01-1.275-1.265A32.412 32.412 0 002.135 7.641 1.3 1.3 0 01.87 6.366V1.231A1.231 1.231 0 012.135 0a39.85 39.85 0 0127 11.718 39.9 39.9 0 0111.712 27.017A1.23 1.23 0 0139.62 40zm-13.615 0a1.331 1.331 0 01-1.292-1.26 18.656 18.656 0 00-5.447-12.025A18.616 18.616 0 002.125 21.26 1.328 1.328 0 01.87 19.966v-5.133a1.213 1.213 0 011.255-1.222 26.266 26.266 0 0117.387 7.717 26.361 26.361 0 017.718 17.407A1.216 1.216 0 0126.012 40z"/>
      <path d="M38.815 38c-.49-9.383-4.411-18.187-11.095-24.868C21.044 6.449 12.247 2.526 2.87 2.033v3.641C20.156 6.678 34.157 20.7 35.152 38h3.663m-13.637 0a24.38 24.38 0 00-7.081-15.259c-4.11-4.116-9.489-6.61-15.227-7.078v3.652a20.68 20.68 0 0112.651 5.988A20.71 20.71 0 0121.498 38h3.68m14.442 2h-5.16c-.693 0-1.248-.574-1.276-1.265C32.54 21.89 18.957 8.293 2.134 7.641 1.443 7.613.87 7.056.87 6.366V1.23C.87.54 1.442-.023 2.135 0c10.522.332 20.03 4.74 27 11.717 6.967 6.965 11.382 16.49 11.712 27.017A1.23 1.23 0 0139.62 40zm-13.608 0h-5.167c-.69 0-1.248-.574-1.293-1.26-.302-4.547-2.21-8.797-5.447-12.025a18.616 18.616 0 00-11.98-5.455C1.437 21.213.87 20.656.87 19.966v-5.133c0-.692.567-1.252 1.255-1.222 6.777.317 12.89 3.212 17.387 7.717 4.51 4.513 7.393 10.63 7.718 17.407A1.216 1.216 0 0126.012 40z"/>
      <circle cx="5.217" cy="5.217" r="5.217" transform="translate(0 29.565)"/>
    </g>
  </symbol>
</svg>